<svg width="40" height="40" viewBox="0 0 40 40" fill="none" xmlns="http://www.w3.org/2000/svg">
<circle cx="20" cy="20" r="19.5" fill="#5A6CC0" stroke="#5A6CC0"/>
<path d="M6 19C5.44772 19 5 19.4477 5 20C5 20.5523 5.44772 21 6 21V19ZM33.7071 20.7071C34.0976 20.3166 34.0976 19.6834 33.7071 19.2929L27.3431 12.9289C26.9526 12.5384 26.3195 12.5384 25.9289 12.9289C25.5384 13.3195 25.5384 13.9526 25.9289 14.3431L31.5858 20L25.9289 25.6569C25.5384 26.0474 25.5384 26.6805 25.9289 27.0711C26.3195 27.4616 26.9526 27.4616 27.3431 27.0711L33.7071 20.7071ZM6 21H33V19H6V21Z" fill="white"/>
</svg>
