<svg width="40" height="40" viewBox="0 0 40 40" fill="none" xmlns="http://www.w3.org/2000/svg">
<circle cx="20" cy="20" r="19.5" transform="rotate(-180 20 20)" fill="#5A6CC0" stroke="#5A6CC0"/>
<path d="M34 21C34.5523 21 35 20.5523 35 20C35 19.4477 34.5523 19 34 19L34 21ZM6.29289 19.2929C5.90237 19.6834 5.90237 20.3166 6.29289 20.7071L12.6569 27.0711C13.0474 27.4616 13.6805 27.4616 14.0711 27.0711C14.4616 26.6805 14.4616 26.0474 14.0711 25.6569L8.41421 20L14.0711 14.3431C14.4616 13.9526 14.4616 13.3195 14.0711 12.9289C13.6805 12.5384 13.0474 12.5384 12.6569 12.9289L6.29289 19.2929ZM34 19L7 19L7 21L34 21L34 19Z" fill="white"/>
</svg>
