<svg width="40" height="44" viewBox="0 0 40 44" fill="none" xmlns="http://www.w3.org/2000/svg">
<path d="M20 0L25.0037 8.66667H21.7778V40.3504C30.0345 39.4716 36.4445 32.5417 36.4445 24.1495C36.4445 18.1805 33.5246 13.0219 28.8485 10.1893V6.1658C35.7063 9.35536 40 16.2507 40 24.1495C40 35.1264 31.0319 44 20 44C8.96815 44 0 35.1264 0 24.1495C0 16.2507 4.29377 9.35536 11.1515 6.1658V10.1893C6.47543 13.0219 3.55556 18.1805 3.55556 24.1495C3.55556 27.9705 4.8843 31.4883 7.11111 34.2698V26.4445H10.6667V37.5678C11.3023 38.0028 11.9704 38.3947 12.6667 38.739V17.5556H16.2222V40.0127C16.8747 40.1646 17.5422 40.278 18.2222 40.3504V8.66667H14.9963L20 0Z" fill="white"/>
<path d="M11.1512 6.16577C2.22233 10.3333 1.77788 18.4444 3.59787 22.9007C4.01344 17.4562 6.75123 12.8703 11.1512 10.1918V6.16577Z" fill="white"/>
<path d="M28.8488 6.16577C37.7777 10.3333 38.2221 18.4444 36.4021 22.9007C35.9866 17.4562 33.2488 12.8703 28.8488 10.1918V6.16577Z" fill="white"/>
</svg>
